<?xml version="1.0" encoding="UTF-8" standalone="no"?>
<!DOCTYPE svg PUBLIC "-//W3C//DTD SVG 1.1//EN" "http://www.w3.org/Graphics/SVG/1.1/DTD/svg11.dtd">
<svg width="100%" height="100%" viewBox="0 0 155 214" version="1.1" xmlns="http://www.w3.org/2000/svg" xmlns:xlink="http://www.w3.org/1999/xlink" xml:space="preserve" xmlns:serif="http://www.serif.com/" style="fill-rule:evenodd;clip-rule:evenodd;stroke-linejoin:round;stroke-miterlimit:2;">
    <g transform="matrix(1,0,0,1,-723.754,-1964.76)">
        <g id="avion" transform="matrix(1.05849,0,0,1.05849,723.754,1964.76)">
            <rect x="0" y="0" width="145.98" height="201.925" style="fill:none;"/>
            <g transform="matrix(0.944741,0,0,0.944741,-606.794,-354.991)">
                <g transform="matrix(1,0,0,1,0,245.245)">
                    <path d="M682.946,284.847L719.545,338.34L776.715,254.776C786.615,242.317 792.535,226.549 792.535,209.401C792.535,169.092 759.855,136.415 719.545,136.415C679.235,136.415 646.555,169.092 646.555,209.401C646.555,226.551 652.475,242.321 662.375,254.78L682.946,284.847L695.98,262.271C675.969,253.271 662.035,233.164 662.035,209.801C662.035,178.043 687.785,152.297 719.545,152.297C751.295,152.297 777.045,178.043 777.045,209.801C777.045,241.561 751.295,267.305 719.545,267.305C711.367,267.305 703.587,265.598 696.547,262.522L695.98,262.271L682.946,284.847Z" style="fill-rule:nonzero;"/>
                </g>
                <g transform="matrix(1,0,0,1,0,187.463)">
                    <path d="M760.483,289.802L761.105,285.689L727.095,254.357C727.095,254.357 725.889,253.352 724.603,250.531L724.603,250.549C724.518,244.86 724.323,239.361 723.962,234.603C723.279,225.604 721.419,219.248 719.545,219.248L719.543,219.248C717.669,219.248 715.809,225.604 715.126,234.603C714.766,239.361 714.57,244.86 714.486,250.549L714.486,250.531C713.199,253.352 711.993,254.357 711.993,254.357L677.984,285.689L678.605,289.802L714.535,269.955L714.535,269.946C714.733,282.003 715.15,291.883 715.15,293.485C715.15,294.556 715.806,298.637 716.633,302.817L705.919,310.633L705.919,313.049L718.617,311.326C718.988,312.537 719.313,313.289 719.545,313.289C719.776,313.289 720.102,312.537 720.471,311.326L733.17,313.049L733.17,310.633L722.456,302.817C723.282,298.637 723.938,294.556 723.938,293.485C723.938,291.883 724.355,282.001 724.553,269.944L724.553,269.955L760.483,289.802Z" style="fill-rule:nonzero;"/>
                </g>
            </g>
        </g>
    </g>
</svg>
