<?xml version="1.0" encoding="UTF-8" standalone="no"?>
<!DOCTYPE svg PUBLIC "-//W3C//DTD SVG 1.1//EN" "http://www.w3.org/Graphics/SVG/1.1/DTD/svg11.dtd">
<svg width="100%" height="100%" viewBox="0 0 155 214" version="1.1" xmlns="http://www.w3.org/2000/svg" xmlns:xlink="http://www.w3.org/1999/xlink" xml:space="preserve" xmlns:serif="http://www.serif.com/" style="fill-rule:evenodd;clip-rule:evenodd;stroke-linejoin:round;stroke-miterlimit:2;">
    <g transform="matrix(1,0,0,1,-904.354,0)">
        <g id="bomberos" transform="matrix(1.05849,0,0,1.05849,904.354,0)">
            <rect x="0" y="0" width="145.98" height="201.925" style="fill:none;"/>
            <g transform="matrix(0.944741,0,0,0.944741,-971.818,-118.455)">
                <g transform="matrix(1,0,0,1,0,-255.497)">
                    <path d="M1069.32,535.218L1105.92,588.711L1163.09,505.147C1172.99,492.688 1178.91,476.92 1178.91,459.772C1178.91,419.463 1146.23,386.786 1105.92,386.786C1065.61,386.786 1032.93,419.463 1032.93,459.772C1032.93,476.922 1038.85,492.692 1048.75,505.151L1069.32,535.218L1082.35,512.642C1062.34,503.642 1048.41,483.535 1048.41,460.172C1048.41,428.414 1074.16,402.668 1105.92,402.668C1137.67,402.668 1163.42,428.414 1163.42,460.172C1163.42,491.932 1137.67,517.676 1105.92,517.676C1097.74,517.676 1089.96,515.969 1082.92,512.893L1082.35,512.642L1069.32,535.218Z" style="fill-rule:nonzero;"/>
                </g>
                <g transform="matrix(1,0,0,1,0,-272.394)">
                    <path d="M1127.51,488.376C1131.8,488.376 1135.33,491.907 1135.33,496.197C1135.33,500.488 1131.8,504.018 1127.51,504.018C1123.22,504.018 1119.69,500.488 1119.69,496.197C1119.69,491.909 1123.22,488.381 1127.51,488.376ZM1127.51,498.719C1128.89,498.719 1130.03,497.58 1130.03,496.197C1130.03,494.814 1128.89,493.675 1127.51,493.675C1126.13,493.675 1124.99,494.814 1124.99,496.197C1124.99,497.58 1126.13,498.717 1127.51,498.719Z" style="fill-rule:nonzero;"/>
                </g>
                <g transform="matrix(1,0,0,1,0,-272.394)">
                    <path d="M1080.45,488.376C1084.74,488.376 1088.27,491.907 1088.27,496.197C1088.27,500.488 1084.74,504.018 1080.45,504.018C1076.16,504.018 1072.63,500.488 1072.63,496.197C1072.64,491.908 1076.17,488.381 1080.45,488.376ZM1080.45,498.719C1081.84,498.719 1082.98,497.58 1082.98,496.197C1082.98,494.814 1081.84,493.675 1080.45,493.675C1079.07,493.675 1077.93,494.814 1077.93,496.197C1077.93,497.58 1079.07,498.718 1080.45,498.719Z" style="fill-rule:nonzero;"/>
                </g>
                <g transform="matrix(1,0,0,1,0,-363.567)">
                    <path d="M1096.74,544.309L1098.71,539.258L1102.53,543.108L1096.74,544.309Z" style="fill-rule:nonzero;"/>
                </g>
                <g transform="matrix(1,0,0,1,0,-368.065)">
                    <path d="M1100.15,542.708L1105.95,541.507L1103.97,546.558L1100.15,542.708Z" style="fill-rule:nonzero;"/>
                </g>
                <g transform="matrix(-1,0,0,1,2134.4,-279.394)">
                    <path d="M1065.47,502.14L1070.47,502.14L1070.47,497.254L1063.93,497.254C1064.81,498.742 1065.34,500.414 1065.47,502.14Z" style="fill-rule:nonzero;"/>
                </g>
                <g transform="matrix(1,0,0,1,0,-371.008)">
                    <path d="M1116.66,542.978L1120.48,546.829L1114.69,548.03L1116.66,542.978Z" style="fill-rule:nonzero;"/>
                </g>
                <g transform="matrix(1,0,0,1,0,-367.287)">
                    <path d="M1105.71,546.169L1107.69,541.118L1111.51,544.968L1105.71,546.169Z" style="fill-rule:nonzero;"/>
                </g>
                <g transform="matrix(1,0,0,1,0,-360.623)">
                    <path d="M1082.2,538.987L1088,537.786L1086.02,542.837L1082.2,538.987Z" style="fill-rule:nonzero;"/>
                </g>
                <g transform="matrix(0.698566,0.715545,0.715545,-0.698566,-62.2317,-206.959)">
                    <path d="M1068.49,536.791C1067.88,537.191 1067.7,538.017 1068.09,538.637L1068.49,539.265L1070.06,535.792L1068.49,536.791Z" style="fill-rule:nonzero;"/>
                </g>
                <g transform="matrix(1,0,0,1,0,-352.403)">
                    <path d="M1071.62,538.352L1069.81,538.727L1071.79,533.676L1073.05,534.952C1072.75,535.299 1072.52,535.703 1072.37,536.139L1071.62,538.352Z" style="fill-rule:nonzero;"/>
                </g>
                <g transform="matrix(1,0,0,1,0,-349.118)">
                    <path d="M1075.72,532.216C1076.69,532.217 1077.49,533.016 1077.49,533.987L1077.49,536.902L1072.86,536.902L1074.04,533.419C1074.28,532.701 1074.96,532.216 1075.72,532.216Z" style="fill-rule:nonzero;"/>
                </g>
                <g transform="matrix(1,0,0,1,0,-303.995)">
                    <path d="M1068.81,520.093L1065.23,520.093L1065.23,508.394C1065.23,507.375 1065.69,506.41 1066.49,505.773L1068.81,503.902L1068.81,520.093Z" style="fill-rule:nonzero;"/>
                </g>
                <g transform="matrix(1,0,0,1,0,-359.845)">
                    <path d="M1087.76,542.448L1089.74,537.397L1093.56,541.247L1087.76,542.448Z" style="fill-rule:nonzero;"/>
                </g>
                <g transform="matrix(1,0,0,1,0,-375.507)">
                    <path d="M1118.1,546.429L1123.9,545.228L1121.92,550.279L1118.1,546.429Z" style="fill-rule:nonzero;"/>
                </g>
                <g transform="matrix(1,0,0,1,0,-358.927)">
                    <path d="M1075.72,540.263C1075.31,540.263 1074.91,540.333 1074.53,540.468L1073.23,539.151L1079.02,537.95L1077.84,540.977C1077.23,540.514 1076.48,540.263 1075.72,540.263Z" style="fill-rule:nonzero;"/>
                </g>
                <g transform="matrix(1,0,0,1,0,-364.345)">
                    <path d="M1091.18,540.848L1096.97,539.647L1095,544.698L1091.18,540.848Z" style="fill-rule:nonzero;"/>
                </g>
                <g transform="matrix(0.954531,0.298111,0.298111,-0.954531,-111.226,373.029)">
                    <path d="M1080.07,534.958C1079.98,535.152 1079.87,535.336 1079.75,535.513L1080.07,540.158L1084.86,537.622L1080.07,534.958Z" style="fill-rule:nonzero;"/>
                </g>
                <g transform="matrix(1,0,0,1,0,-371.786)">
                    <path d="M1114.92,543.367L1112.95,548.419L1109.13,544.568L1114.92,543.367Z" style="fill-rule:nonzero;"/>
                </g>
                <g transform="matrix(1,0,0,1,0,-337.15)">
                    <rect x="1080.79" y="526.696" width="17.282" height="3.758"/>
                </g>
                <g transform="matrix(1,0,0,1,0,-302.134)">
                    <rect x="1092.6" y="503.902" width="15.474" height="14.33"/>
                </g>
                <g transform="matrix(-1,0,0,1,2201.96,-279.394)">
                    <path d="M1090.43,502.14L1109.98,502.14C1110.11,500.414 1110.64,498.742 1111.53,497.254L1090.43,497.254L1090.43,502.14Z" style="fill-rule:nonzero;"/>
                </g>
                <g transform="matrix(1,0,0,1,0,-327.911)">
                    <path d="M1079.02,522.096C1079.02,522.579 1079.42,522.977 1079.9,522.977L1098.95,522.977C1099.43,522.977 1099.83,522.579 1099.83,522.096L1099.83,517.457L1108.07,517.457L1108.07,530.454L1070.57,530.454L1070.57,517.457L1079.02,517.457L1079.02,522.096Z" style="fill-rule:nonzero;"/>
                </g>
                <g transform="matrix(1,0,0,1,0,-302.796)">
                    <path d="M1098.07,518.894L1089.14,518.894C1087,516.472 1083.91,515.085 1080.68,515.086L1080.23,515.086C1077,515.084 1073.91,516.472 1071.76,518.894L1070.57,518.894L1070.57,503.902L1098.07,503.902L1098.07,518.894Z" style="fill-rule:nonzero;"/>
                </g>
                <g transform="matrix(1,0,0,1,0,-307.711)">
                    <path d="M1115.71,497.257L1137.05,497.257C1137.97,497.254 1138.81,497.775 1139.22,498.599C1139.3,498.758 1139.38,498.916 1139.46,499.074L1129.68,499.074C1129.2,499.074 1128.8,499.472 1128.8,499.955L1128.8,508.635C1128.8,509.035 1129.07,509.386 1129.46,509.487L1144.56,513.444L1144.56,523.809L1136.2,523.809C1134.05,521.387 1130.97,519.999 1127.73,520.001L1127.29,520.001C1121.4,520.008 1116.45,524.59 1115.98,530.457L1113.29,530.457L1113.29,499.618C1113.33,498.316 1114.4,497.261 1115.71,497.257ZM1115.39,508.657C1115.39,509.14 1115.79,509.538 1116.27,509.538L1125.94,509.538C1126.42,509.538 1126.82,509.14 1126.82,508.657L1126.82,499.955C1126.82,499.471 1126.42,499.074 1125.94,499.074L1116.27,499.074C1115.79,499.074 1115.39,499.471 1115.39,499.955L1115.39,508.657Z" style="fill-rule:nonzero;"/>
                </g>
                <g transform="matrix(1,0,0,1,0,-322.799)">
                    <path d="M1137.75,514.063L1139.39,514.063L1144.15,528.736L1142.29,528.249L1137.75,514.063Z" style="fill-rule:nonzero;"/>
                </g>
                <g transform="matrix(0.979194,-0.202927,-0.202927,-0.979194,134.995,937.998)">
                    <path d="M1127.48,551.618L1133.55,551.618L1133.56,546.339L1130.91,546.339L1127.48,551.618Z" style="fill-rule:nonzero;"/>
                </g>
                <g transform="matrix(0.206404,0.978467,0.978467,-0.206404,364.25,-830.253)">
                    <rect x="1134.24" y="547.959" width="7.17" height="5.233"/>
                </g>
                <g transform="matrix(1,0,0,1,0,-348.792)">
                    <path d="M1131.11,532.215C1132.24,532.216 1133.18,533.15 1133.18,534.286L1133.18,536.577L1129.04,536.577L1129.04,534.286C1129.04,533.15 1129.97,532.216 1131.11,532.215Z" style="fill-rule:nonzero;"/>
                </g>
                <g transform="matrix(1,0,0,1,0,-374.729)">
                    <path d="M1123.66,549.89L1125.64,544.839L1129.46,548.689L1123.66,549.89Z" style="fill-rule:nonzero;"/>
                </g>
                <g transform="matrix(1,0,0,1,0,-279.394)">
                    <path d="M1145.54,497.58L1145.54,501.815C1145.54,501.992 1145.39,502.138 1145.21,502.14L1139.03,502.14C1138.9,500.415 1138.37,498.743 1137.49,497.254L1145.21,497.254C1145.39,497.257 1145.54,497.402 1145.54,497.58Z" style="fill-rule:nonzero;"/>
                </g>
            </g>
        </g>
    </g>
</svg>
