<?xml version="1.0" encoding="UTF-8" standalone="no"?>
<!DOCTYPE svg PUBLIC "-//W3C//DTD SVG 1.1//EN" "http://www.w3.org/Graphics/SVG/1.1/DTD/svg11.dtd">
<svg width="100%" height="100%" viewBox="0 0 155 214" version="1.1" xmlns="http://www.w3.org/2000/svg" xmlns:xlink="http://www.w3.org/1999/xlink" xml:space="preserve" xmlns:serif="http://www.serif.com/" style="fill-rule:evenodd;clip-rule:evenodd;stroke-linejoin:round;stroke-miterlimit:2;">
    <g transform="matrix(1,0,0,1,-191.396,-3667.08)">
        <g id="casco-negro-2" serif:id="casco negro 2" transform="matrix(1.05849,0,0,1.05849,191.396,3667.08)">
            <rect x="0" y="0" width="145.98" height="201.925" style="fill:none;"/>
            <g transform="matrix(0.944741,0,0,0.944741,-260.873,-375.695)">
                <g transform="matrix(1,0,0,1,0,289.075)">
                    <path d="M389.991,262.932L353.391,316.425L296.221,232.861C286.321,220.402 280.401,204.634 280.401,187.486C280.401,147.177 313.081,114.5 353.391,114.5C393.701,114.5 426.381,147.177 426.381,187.486C426.381,204.636 420.461,220.406 410.561,232.865L389.991,262.932L376.961,240.356C396.971,231.356 410.901,211.249 410.901,187.886C410.901,156.128 385.151,130.382 353.391,130.382C321.641,130.382 295.891,156.128 295.891,187.886C295.891,219.646 321.641,245.39 353.391,245.39C361.571,245.39 369.351,243.683 376.391,240.607L376.961,240.356L389.991,262.932Z" style="fill-rule:nonzero;"/>
                </g>
                <g transform="matrix(1,0,0,1,0,230.989)">
                    <path d="M326.911,266.539C327.811,274.018 330.871,280.596 335.471,285.463C336.461,286.454 337.451,287.445 338.531,288.256C339.891,289.337 341.331,290.238 342.861,291.049C346.281,292.852 350.071,293.843 354.121,293.843C358.181,293.843 361.961,292.852 365.391,291.049C366.921,290.238 368.361,289.337 369.711,288.256C370.791,287.355 371.791,286.454 372.781,285.463C377.281,280.596 380.441,274.018 381.251,266.629L381.521,266.629C386.291,266.629 390.081,262.213 390.081,256.806C390.081,253.472 388.641,250.588 386.481,248.786L323.031,248.786C320.871,250.588 319.431,253.472 319.431,256.806C319.521,261.762 322.671,265.818 326.911,266.539ZM340.791,206.342C331.411,211.118 324.031,220.67 321.231,229.952L320.601,231.934L315.461,231.934L315.461,243.199L391.341,243.199L391.341,231.934L386.291,231.934L385.661,229.952C382.871,220.67 375.481,211.208 366.111,206.432L366.111,230.943C366.021,231.934 365.841,232.836 365.391,233.737C364.221,235.99 361.871,237.612 359.171,237.612L347.821,237.612C345.291,237.612 343.041,236.26 341.871,234.277C341.331,233.466 341.061,232.566 340.881,231.574C340.791,231.213 340.791,230.943 340.791,230.583L340.791,206.342ZM347.821,234.638L359.081,234.638C360.701,234.638 362.051,233.737 362.771,232.385C363.141,231.754 363.321,231.123 363.321,230.402L363.321,200.755C363.321,200.034 363.141,199.403 362.961,198.772C362.141,196.699 360.071,195.168 357.731,195.168L347.821,195.168C345.651,195.168 343.851,196.79 343.671,198.862C343.671,199.042 343.581,199.223 343.581,199.403L343.581,230.402C343.581,231.304 343.851,232.115 344.301,232.836C345.111,233.917 346.371,234.638 347.821,234.638Z" style="fill-rule:nonzero;"/>
                </g>
            </g>
        </g>
    </g>
</svg>
